#!OML:ASF E:\Steps\Project 1\Capture day 1\Session 2\Subject.ASF
:FULLY-SPECIFIED
:DEGREES
17
root 9.28496 16.3138 20.0184 -152.054 -3.0751 -179.747
lowerback -30.729 -1.22785 -4.8582
upperback -3.50454 -1.08508 -0.102499
thorax 12.1867 -1.18656 2.00111
lowerneck -0.816292 -0.40278 -3.28188
upperneck 6.62036 -0.957608 5.28133
head 2.29492 -0.507186 2.24873
rclavicle 1.2921e-015 -6.75868e-015
rhumerus -36.5635 -23.2794 -76.356
rradius 24.0491
rwrist 6.61958
rhand -9.03013 -50.5679
rfingers 7.12502
rthumb 16.9174 -79.8511
lclavicle 1.2921e-015 -6.75868e-015
lhumerus -30.8627 11.1685 77.6879
lradius 15.6977
lwrist -13.6887
lhand -21.5633 -12.2817
lfingers 7.12502
lthumb 4.83048 17.6433
rfemur -23.7883 7.319 18.44
rtibia 5.86221
rfoot -18.7893 -8.54401
rtoes -27.2351
lfemur -25.0214 -10.1928 -15.7928
ltibia 7.43534
lfoot -7.72508 5.09316
ltoes -39.7127
18
root 9.28475 16.3145 20.0183 -152.098 -3.07706 -179.762
lowerback -30.6861 -1.22965 -4.87105
upperback -3.50145 -1.08056 -0.120244
thorax 12.171 -1.18355 1.99182
lowerneck -0.779926 -0.445921 -3.18102
upperneck 6.52797 -1.00029 5.12432
head 2.25652 -0.528213 2.17596
rclavicle -1.12313e-014 -7.95139e-015
rhumerus -36.5039 -23.2926 -76.4853
rradius 24.1512
rwrist 6.4944
rhand -8.88676 -50.5213
rfingers 7.12502
rthumb 17.0554 -79.7926
lclavicle -1.12313e-014 -7.95139e-015
lhumerus -30.8166 11.0988 77.7728
lradius 15.7671
lwrist -13.6753
lhand -21.4491 -12.4174
lfingers 7.12502
lthumb 4.94072 17.505
rfemur -23.7148 7.30513 18.4307
rtibia 5.81598
rfoot -18.8127 -8.56184
rtoes -27.4141
lfemur -24.9627 -10.2011 -15.8218
ltibia 7.42213
lfoot -7.68977 5.16867
ltoes -39.9837
19
root 9.28438 16.3151 20.0176 -152.146 -3.08933 -179.754
lowerback -30.6355 -1.23487 -4.86672
upperback -3.52412 -1.09395 -0.123799
thorax 12.1244 -1.18917 1.9818
lowerneck -0.717477 -0.48261 -3.06474
upperneck 6.4256 -1.0352 4.96087
head 2.20946 -0.545737 2.09853
rclavicle -3.23025e-015 1.86858e-014
rhumerus -36.5146 -23.2316 -76.6079
rradius 24.2679
rwrist 6.42582
rhand -8.64984 -50.1969
rfingers 7.12502
rthumb 17.2835 -79.4484
lclavicle -3.23025e-015 1.86858e-014
lhumerus -30.8401 10.9668 77.886
lradius 15.855
lwrist -13.6035
lhand -21.3291 -12.5283
lfingers 7.12502
lthumb 5.05654 17.3914
rfemur -23.6673 7.37432 18.4328
rtibia 5.8401
rfoot -18.8205 -8.66057
rtoes -27.0559
lfemur -24.8989 -10.237 -15.8098
ltibia 7.39547
lfoot -7.68266 5.2619
ltoes -40.1732
20
root 9.28414 16.3147 20.017 -152.154 -3.08421 -179.754
lowerback -30.6419 -1.24205 -4.86933
upperback -3.52029 -1.10199 -0.120695
thorax 12.1321 -1.19303 1.9833
lowerneck -0.713915 -0.516371 -2.98489
upperneck 6.33341 -1.06345 4.80586
head 2.17669 -0.559151 2.03131
rclavicle 1.49089e-015 -3.18055e-015
rhumerus -36.4496 -23.0102 -76.8205
rradius 24.4095
rwrist 6.24192
rhand -8.37762 -49.8845
rfingers 7.12502
rthumb 17.5455 -79.1128
lclavicle 1.49089e-015 -3.18055e-015
lhumerus -30.7589 11.0532 77.9688
lradius 15.864
lwrist -13.7373
lhand -21.3328 -12.5784
lfingers 7.12502
lthumb 5.05299 17.3413
rfemur -23.6942 7.52255 18.3996
rtibia 5.92265
rfoot -18.896 -8.81836
rtoes -26.6276
lfemur -24.8794 -10.2538 -15.8044
ltibia 7.37684
lfoot -7.74832 5.2102
ltoes -39.7959
21
root 9.28342 16.314 20.0159 -152.167 -3.09229 -179.781
lowerback -30.629 -1.24431 -4.88851
upperback -3.54356 -1.10263 -0.13495
thorax 12.0998 -1.19496 1.97832
lowerneck -0.665337 -0.554157 -2.8938
upperneck 6.23602 -1.09959 4.65006
head 2.1343 -0.577336 1.96169
rclavicle 2.5345e-015 1.07344e-014
rhumerus -36.4138 -22.7136 -77.0904
rradius 24.5706
rwrist 5.93921
rhand -8.57011 -49.9313
rfingers 7.12502
rthumb 17.3602 -79.176
lclavicle 2.5345e-015 1.07344e-014
lhumerus -30.6773 10.9756 78.1033
lradius 15.8388
lwrist -13.6699
lhand -21.2838 -12.6829
lfingers 7.12502
lthumb 5.10029 17.2357
rfemur -23.6117 7.56447 18.3575
rtibia 5.80484
rfoot -18.8672 -8.87984
rtoes -26.6334
lfemur -24.8578 -10.2174 -15.8583
ltibia 7.38019
lfoot -7.82192 5.07747
ltoes -39.5586
22
root 9.28258 16.3136 20.0153 -152.169 -3.10956 -179.785
lowerback -30.6311 -1.23918 -4.88681
upperback -3.5946 -1.10727 -0.148428
thorax 12.0426 -1.19967 1.96093
lowerneck -0.518142 -0.587948 -2.79141
upperneck 6.13618 -1.13514 4.48815
head 2.07313 -0.597403 1.88805
rclavicle 5.46658e-016 6.36111e-015
rhumerus -36.4126 -22.3141 -77.4151
rradius 24.778
rwrist 5.5044
rhand -8.93726 -50.5644
rfingers 7.12502
rthumb 17.0068 -79.8399
lclavicle 5.46658e-016 6.36111e-015
lhumerus -30.6806 10.5489 78.3743
lradius 15.9631
lwrist -13.2068
lhand -21.3816 -12.4534
lfingers 7.12502
lthumb 5.0059 17.4674
rfemur -23.5407 7.48102 18.3743
rtibia 5.67968
rfoot -18.7464 -8.82113
rtoes -26.8493
lfemur -24.8558 -10.1885 -15.8788
ltibia 7.38814
lfoot -7.80501 5.09354
ltoes -40.1041
23
root 9.2826 16.3136 20.017 -152.138 -3.08551 -179.772
lowerback -30.6897 -1.22125 -4.87732
upperback -3.59796 -1.08716 -0.155828
thorax 12.0622 -1.19194 1.95397
lowerneck -0.514397 -0.628801 -2.68749
upperneck 6.03701 -1.17399 4.33157
head 2.03823 -0.615615 1.81659
rclavicle -4.42296e-015 5.00937e-014
rhumerus -36.2703 -22.2656 -77.6021
rradius 24.8283
rwrist 5.41195
rhand -8.91485 -50.5432
rfingers 7.12502
rthumb 17.0284 -79.8168
lclavicle -4.42296e-015 5.00937e-014
lhumerus -30.6188 10.2988 78.6099
lradius 16.1501
lwrist -12.8704
lhand -21.7126 -12.1849
lfingers 7.12502
lthumb 4.68633 17.7433
rfemur -23.6075 7.43986 18.3852
rtibia 5.70935
rfoot -18.7225 -8.69201
rtoes -26.6089
lfemur -24.922 -10.1644 -15.8581
ltibia 7.43337
lfoot -7.75743 5.15699
ltoes -40.5787
24
root 9.28288 16.314 20.0189 -152.106 -3.07548 -179.767
lowerback -30.7437 -1.24879 -4.87287
upperback -3.56898 -1.12213 -0.114692
thorax 12.1218 -1.20816 1.98102
lowerneck -0.56946 -0.64957 -2.66632
upperneck 5.95378 -1.18267 4.18693
head 2.01905 -0.61902 1.76488
rclavicle -6.95746e-016 -1.15295e-014
rhumerus -35.9469 -22.5316 -77.6031
rradius 24.6332
rwrist 5.86426
rhand -8.94731 -50.2996
rfingers 7.12502
rthumb 16.9972 -79.576
lclavicle -6.95746e-016 -1.15295e-014
lhumerus -30.5114 10.6213 78.6902
lradius 16.2457
lwrist -13.0428
lhand -21.72 -12.2104
lfingers 7.12502
lthumb 4.67917 17.7179
rfemur -23.6729 7.50005 18.3656
rtibia 5.73906
rfoot -18.6296 -8.69005
rtoes -26.8824
lfemur -24.9951 -10.1442 -15.8382
ltibia 7.48683
lfoot -7.75816 5.12132
ltoes -40.3226
25
root 9.2817 16.3149 20.016 -152.172 -3.06843 -179.79
lowerback -30.7174 -1.25267 -4.88425
upperback -3.56781 -1.12215 -0.125003
thorax 12.1116 -1.20783 1.97675
lowerneck -0.518627 -0.683382 -2.59011
upperneck 5.85539 -1.21445 4.03526
head 1.97611 -0.635267 1.70046
rclavicle -3.32964e-015 2.74323e-014
rhumerus -35.8181 -22.7667 -77.5986
rradius 24.5161
rwrist 6.19901
rhand -8.9911 -50.5008
rfingers 7.12502
rthumb 16.955 -79.7808
lclavicle -3.32964e-015 2.74323e-014
lhumerus -30.4751 10.5895 78.8454
lradius 16.3181
lwrist -12.9336
lhand -21.5272 -12.3167
lfingers 7.12502
lthumb 4.86528 17.6074
rfemur -23.5695 7.47968 18.3499
rtibia 5.7096
rfoot -18.6087 -8.73314
rtoes -27.3468
lfemur -24.8856 -10.1652 -15.8882
ltibia 7.43328
lfoot -7.76338 5.12364
ltoes -39.8685
26
root 9.28096 16.3147 20.0132 -152.215 -3.08732 -179.824
lowerback -30.6839 -1.25158 -4.90681
upperback -3.5741 -1.11041 -0.164856
thorax 12.0882 -1.20253 1.95144
lowerneck -0.514034 -0.739031 -2.45069
upperneck 5.767 -1.27576 3.87156
head 1.94483 -0.664476 1.62079
rclavicle -3.13086e-015 -1.98785e-015
rhumerus -35.7718 -22.7903 -77.7391
rradius 24.5901
rwrist 6.1218
rhand -8.85358 -50.8205
rfingers 7.12502
rthumb 17.0874 -80.089
lclavicle -3.13086e-015 -1.98785e-015
lhumerus -30.379 10.0446 79.1574
lradius 16.3811
lwrist -12.3586
lhand -21.6349 -12.3238
lfingers 7.12502
lthumb 4.76131 17.6027
rfemur -23.3976 7.57249 18.2986
rtibia 5.50994
rfoot -18.6789 -8.89735
rtoes -27.0281
lfemur -24.8119 -10.1804 -15.9445
ltibia 7.39263
lfoot -7.763 5.09795
ltoes -39.7836
27
root 9.28061 16.3153 20.0114 -152.271 -3.16753 -179.814
lowerback -30.6319 -1.27647 -4.88279
upperback -3.57944 -1.15205 -0.160732
thorax 12.0629 -1.21906 1.92848
lowerneck -0.51494 -0.781858 -2.33709
upperneck 5.67705 -1.3188 3.70537
head 1.91358 -0.684978 1.54555
rclavicle 4.27387e-015 9.14409e-015
rhumerus -35.6393 -22.7461 -77.8986
rradius 24.6304
rwrist 5.98927
rhand -8.58254 -50.5721
rfingers 7.12502
rthumb 17.3482 -79.8179
lclavicle 4.27387e-015 9.14409e-015
lhumerus -30.3399 9.60139 79.4269
lradius 16.5386
lwrist -12.0106
lhand -21.6289 -12.2439
lfingers 7.12502
lthumb 4.76711 17.6825
rfemur -23.1906 7.75724 18.2926
rtibia 5.27108
rfoot -18.6402 -9.09287
rtoes -26.5781
lfemur -24.7451 -10.2224 -15.9232
ltibia 7.39754
lfoot -7.77629 5.05424
ltoes -39.8722
28
root 9.28015 16.3158 20.0115 -152.3 -3.22449 -179.793
lowerback -30.6095 -1.29523 -4.84939
upperback -3.58555 -1.19123 -0.136024
thorax 12.0497 -1.23513 1.92274
lowerneck -0.481932 -0.814598 -2.27472
upperneck 5.58485 -1.34904 3.55147
head 1.87592 -0.700466 1.48379
rclavicle 7.90169e-015 8.74653e-015
rhumerus -35.4667 -22.5175 -78.1019
rradius 24.7022
rwrist 5.70839
rhand -8.3047 -49.9073
rfingers 7.12502
rthumb 17.6156 -79.1293
lclavicle 7.90169e-015 8.74653e-015
lhumerus -30.2698 9.48419 79.6303
lradius 16.6435
lwrist -11.8415
lhand -21.5908 -12.4625
lfingers 7.12502
lthumb 4.80387 17.463
rfemur -23.2103 7.7033 18.342
rtibia 5.38365
rfoot -18.6133 -9.03313
rtoes -26.5605
lfemur -24.7361 -10.2372 -15.8837
ltibia 7.44327
lfoot -7.80704 5.02996
ltoes -39.565
29
root 9.28022 16.3145 20.0125 -152.281 -3.20426 -179.761
lowerback -30.6447 -1.27462 -4.82644
upperback -3.59776 -1.17516 -0.134255
thorax 12.0498 -1.22846 1.91742
lowerneck -0.445223 -0.853968 -2.16373
upperneck 5.4989 -1.39002 3.38887
head 1.83927 -0.720784 1.41078
rclavicle 4.96962e-017 3.97569e-016
rhumerus -35.3842 -22.2837 -78.3083
rradius 24.821
rwrist 5.58109
rhand -8.25928 -49.3642
rfingers 7.12502
rthumb 17.6593 -78.5822
lclavicle 4.96962e-017 3.97569e-016
lhumerus -30.0967 9.32958 79.8532
lradius 16.5792
lwrist -11.4543
lhand -21.8208 -12.6386
lfingers 7.12502
lthumb 4.58178 17.2919
rfemur -23.3379 7.59967 18.3972
rtibia 5.56801
rfoot -18.617 -8.92506
rtoes -27.0372
lfemur -24.7898 -10.1757 -15.8535
ltibia 7.49382
lfoot -7.83658 4.97647
ltoes -39.3041
30
root 9.27999 16.3122 20.0136 -152.204 -3.12426 -179.721
lowerback -30.7444 -1.2455 -4.8095
upperback -3.61843 -1.14976 -0.122686
thorax 12.0675 -1.22046 1.92761
lowerneck -0.411001 -0.886333 -2.05
upperneck 5.41024 -1.42118 3.21844
head 1.80175 -0.736207 1.33525
rclavicle 7.90169e-015 -7.15625e-015
rhumerus -35.3094 -22.2882 -78.3879
rradius 24.8634
rwrist 5.85376
rhand -8.10759 -48.1452
rfingers 7.12502
rthumb 17.8053 -77.35
lclavicle 7.90169e-015 -7.15625e-015
lhumerus -30.0165 9.12997 80.0915
lradius 16.6751
lwrist -11.0859
lhand -21.8878 -12.5279
lfingers 7.12502
lthumb 4.51709 17.404
rfemur -23.479 7.54325 18.4336
rtibia 5.63772
rfoot -18.6468 -8.81426
rtoes -27.3147
lfemur -24.8724 -10.1313 -15.817
ltibia 7.48618
lfoot -7.81561 5.00085
ltoes -39.2842
31
root 9.27829 16.3095 20.0164 -152.083 -2.99808 -179.709
lowerback -30.8549 -1.20078 -4.80268
upperback -3.65736 -1.10384 -0.128162
thorax 12.0669 -1.20498 1.93245
lowerneck -0.36843 -0.917746 -1.94973
upperneck 5.31847 -1.4513 3.052
head 1.76197 -0.751386 1.26369
rclavicle -8.79622e-015 -1.27222e-014
rhumerus -35.225 -22.0735 -78.6016
rradius 25.0442
rwrist 5.79441
rhand -7.93314 -47.737
rfingers 7.12502
rthumb 17.9732 -76.9266
lclavicle -8.79622e-015 -1.27222e-014
lhumerus -30.0643 8.91162 80.3244
lradius 17.0007
lwrist -10.8588
lhand -21.7293 -12.4603
lfingers 7.12502
lthumb 4.67015 17.4682
rfemur -23.7095 7.43578 18.4232
rtibia 5.75654
rfoot -18.7285 -8.58509
rtoes -26.9879
lfemur -24.9823 -10.1638 -15.8029
ltibia 7.4512
lfoot -7.78397 5.20951
ltoes -39.4855
